<?xml version="1.0" encoding="UTF-8"?>
<svg width="200" height="200" viewBox="0 0 200 200" xmlns="http://www.w3.org/2000/svg">
  <!-- 배경 원 -->
  <circle cx="100" cy="100" r="90" fill="#F1F8E9" />
  
  <!-- 두꺼비 -->
  <circle cx="100" cy="100" r="70" fill="#8BC34A" />
  <circle cx="70" cy="80" r="15" fill="white" />
  <circle cx="130" cy="80" r="15" fill="white" />
  <circle cx="70" cy="80" r="8" fill="black" />
  <circle cx="130" cy="80" r="8" fill="black" />
  <path d="M85 120 Q100 140 115 120" stroke="black" stroke-width="3" fill="none" />
  
  <!-- 콩 -->
  <circle cx="100" cy="50" r="20" fill="#795548" />
  <circle cx="100" cy="50" r="15" fill="#A1887F" />
  
  <!-- 구멍난 독 -->
  <path d="M40 150 L160 150 L140 180 L60 180 Z" fill="#5D4037" />
  <path d="M80 150 L120 150 L110 170 L90 170 Z" fill="#8D6E63" />
  
  <!-- 장식 요소 -->
  <circle cx="30" cy="30" r="10" fill="#8BC34A" opacity="0.3" />
  <circle cx="170" cy="30" r="10" fill="#8BC34A" opacity="0.3" />
  <circle cx="30" cy="170" r="10" fill="#795548" opacity="0.3" />
  <circle cx="170" cy="170" r="10" fill="#795548" opacity="0.3" />
  
  <!-- 텍스트 -->
  <text x="100" y="190" font-family="Pretendard" font-size="20" text-anchor="middle" fill="#333" font-weight="bold">KongDoo Mall</text>
</svg> 